<?xml version="1.0" standalone="no"?>
<!DOCTYPE svg PUBLIC "-//W3C//DTD SVG 20010904//EN"
 "http://www.w3.org/TR/2001/REC-SVG-20010904/DTD/svg10.dtd">
<svg version="1.0" xmlns="http://www.w3.org/2000/svg"
 width="1024.000000pt" height="1024.000000pt" viewBox="0 0 1024.000000 1024.000000"
 preserveAspectRatio="xMidYMid meet">

<g transform="translate(0.000000,1024.000000) scale(0.100000,-0.100000)"
fill="#000000" stroke="none">
<path d="M4785 8668 l-460 -458 -145 -1 c-151 -2 -350 -1 -986 6 l-381 4 -16
-52 c-9 -29 -21 -90 -27 -137 -24 -174 -130 -771 -189 -1070 -22 -107 -42
-219 -45 -247 l-5 -53 77 -1 c42 0 85 -3 94 -7 13 -5 -40 -64 -235 -263 -139
-140 -352 -353 -474 -471 -123 -119 -223 -220 -223 -225 0 -6 44 -1 97 9 116
23 233 20 262 -6 10 -9 30 -41 45 -72 15 -31 31 -53 34 -50 4 3 76 75 159 159
l153 152 0 -996 0 -997 -271 -4 c-292 -4 -289 -3 -289 -59 0 -14 6 -33 13 -43
13 -18 136 -18 3263 -17 1787 0 3263 5 3279 9 24 7 32 16 40 46 16 65 11 66
-310 66 l-281 0 -2 938 c-2 515 0 974 4 1020 l6 83 145 -147 c80 -80 153 -161
164 -178 10 -17 19 -25 19 -18 0 6 9 12 21 12 14 0 25 11 35 36 21 49 62 64
182 66 89 2 103 -1 170 -30 39 -17 72 -27 72 -23 0 11 -79 118 -108 146 -347
344 -872 871 -872 876 0 3 49 10 110 14 61 3 110 11 110 15 0 5 -5 21 -10 35
-6 15 -21 91 -35 168 -38 223 -51 292 -84 447 -17 80 -55 273 -86 430 -30 157
-63 318 -73 359 l-17 73 -117 2 c-64 0 -119 4 -122 7 -3 3 -9 38 -12 77 -5 51
-4 72 5 72 8 0 11 49 11 170 l0 170 -27 0 c-16 0 -45 3 -67 7 l-38 6 3 126 4
126 -140 3 c-186 4 -184 4 -174 -55 4 -27 8 -85 8 -130 l1 -83 -69 0 -70 0 -6
-44 c-7 -42 -2 -187 11 -367 5 -74 5 -77 -18 -83 -13 -3 -179 -6 -369 -6
l-345 0 -155 156 c-246 249 -768 759 -777 760 -4 0 -214 -206 -467 -458z m885
-113 c666 -653 699 -684 1420 -1361 118 -111 470 -456 781 -767 l566 -564 -34
-18 c-19 -10 -50 -37 -70 -59 -23 -25 -38 -35 -41 -27 -14 42 -211 241 -687
695 -126 121 -318 305 -425 410 -108 105 -256 247 -330 315 -74 68 -324 309
-555 536 -231 227 -559 548 -730 713 -291 282 -311 299 -322 278 -14 -25
-1113 -1110 -1323 -1306 -162 -150 -1084 -1045 -1458 -1415 l-243 -240 -25 33
c-14 17 -45 44 -70 58 -24 14 -44 27 -44 28 0 2 33 31 73 65 39 34 227 216
417 405 190 188 559 549 820 803 566 550 1039 1013 1514 1480 l349 344 91 -88
c50 -48 197 -191 326 -318z m1570 240 l0 -75 -40 0 -40 0 0 68 c0 38 3 72 7
75 3 4 21 7 40 7 l33 0 0 -75z m130 -254 c0 -84 9 -81 -197 -81 l-153 0 0 69
0 70 33 4 c17 2 96 5 175 5 l142 2 0 -69z m-1910 -207 c50 -49 95 -90 101 -92
5 -2 9 -10 9 -18 0 -8 5 -14 11 -14 12 0 44 -30 32 -30 -4 0 3 -6 17 -13 14
-8 24 -20 22 -28 -2 -8 0 -11 4 -7 10 11 34 -11 34 -32 0 -12 19 -27 57 -45
44 -21 97 -67 247 -217 105 -104 185 -187 179 -183 -9 4 -13 -2 -13 -18 0 -34
24 -89 35 -80 4 5 5 3 2 -3 -10 -18 16 -34 51 -31 20 1 32 7 32 16 0 17 18 0
62 -59 l26 -35 -41 -54 c-23 -30 -61 -70 -84 -89 l-43 -35 0 37 c0 19 5 66 12
103 11 65 10 70 -12 103 -13 19 -77 85 -143 145 -66 61 -201 195 -301 300 -99
104 -236 245 -303 313 -144 144 -153 157 -112 156 22 -1 49 -21 119 -90z
m1758 -69 c3 -110 14 -149 22 -75 3 30 10 54 15 52 6 -2 9 -12 7 -22 -2 -11 2
-20 7 -20 6 0 11 -9 11 -20 0 -15 7 -20 25 -20 27 0 27 0 30 88 1 29 4 55 7
57 2 3 5 -138 6 -313 1 -174 5 -377 8 -450 l7 -134 -143 6 c-79 3 -145 8 -148
11 -2 2 -13 35 -23 72 -16 57 -19 103 -19 304 0 130 3 304 7 387 l6 151 61 4
c119 7 111 13 114 -78z m50 68 c-11 -3 -18 -14 -18 -30 0 -31 -5 -28 -13 7 -6
23 -3 26 21 27 15 0 19 -1 10 -4z m-1888 -175 c58 -60 110 -108 116 -108 12 0
481 -462 558 -548 l47 -54 -4 -1131 c-4 -1053 -6 -1132 -22 -1135 -11 -3 -14
-9 -9 -20 5 -10 10 -149 12 -309 l4 -293 -50 0 -49 0 -7 598 c-4 329 -4 694 0
810 l7 212 -701 0 c-385 0 -707 -2 -714 -5 -12 -5 -13 -134 -10 -810 l3 -805
-48 0 -48 0 4 77 c1 43 0 183 -4 311 -6 188 -10 232 -21 232 -12 0 -14 61 -14
368 0 202 -3 708 -6 1125 l-6 759 28 29 c16 16 34 27 40 25 7 -3 15 1 18 9 3
10 0 12 -12 8 -26 -10 33 51 411 429 191 190 347 352 348 359 0 9 5 6 12 -6 7
-11 59 -68 117 -127z m-562 -73 c-6 -14 -16 -25 -22 -25 -6 0 -4 -5 4 -10 10
-6 11 -10 3 -10 -7 0 -13 -7 -13 -16 0 -11 -6 -15 -19 -11 -12 3 -18 -1 -17
-12 1 -10 -8 -16 -22 -17 -19 -1 -20 1 -10 15 14 19 101 111 105 111 1 0 -3
-11 -9 -25z m-660 -4 c7 -4 0 -30 -12 -40 -13 -11 -1204 -25 -1232 -14 -16 6
-19 44 -5 59 8 7 1235 3 1249 -5z m2650 -1 c70 0 22 -11 -70 -17 -82 -5 -96
-3 -108 13 -14 16 -11 17 64 11 43 -4 95 -7 114 -7z m850 -168 l3 -33 -88 3
c-87 3 -88 3 -91 30 -3 25 0 27 40 31 24 2 63 4 88 3 43 -1 45 -2 48 -34z
m-3648 12 c0 -8 -5 -24 -10 -35 -10 -18 -27 -19 -575 -19 -445 0 -565 3 -565
13 0 6 3 22 6 35 l6 22 569 0 c510 0 569 -2 569 -16z m2890 -13 c0 -10 -7 -22
-16 -25 -31 -12 -309 -7 -322 6 -28 28 -33 27 266 36 65 2 72 0 72 -17z
m-3072 -145 c26 -9 28 -23 5 -48 -15 -17 -44 -18 -505 -18 l-488 0 0 24 c0 54
-25 51 488 50 262 0 487 -4 500 -8z m3893 -188 l7 -28 -119 0 -119 0 0 25 c0
23 4 24 68 28 139 7 155 5 163 -25z m-4031 11 c0 -3 -11 -16 -25 -29 l-25 -23
-418 -5 -418 -5 4 36 4 36 439 -2 c241 -1 439 -5 439 -8z m3201 -4 c-1 -15
-24 -12 -29 3 -3 9 2 13 12 10 10 -1 17 -7 17 -13z m866 -151 c10 -28 -13 -35
-131 -41 l-116 -6 0 26 c0 32 9 34 138 36 85 1 104 -2 109 -15z m-4250 -8 c3
-3 -2 -17 -11 -32 l-18 -26 -349 4 -349 3 0 34 0 34 361 -6 c198 -3 363 -8
366 -11z m582 -43 c-29 -39 -53 -63 -63 -63 -5 0 8 18 29 40 41 42 57 52 34
23z m2373 -10 c10 -9 18 -24 18 -33 0 -32 -59 -107 -163 -208 l-107 -102 0 64
0 65 95 110 c111 129 122 136 157 104z m-2162 -30 c0 -32 -75 -109 -93 -95
-21 16 -61 21 -76 10 -9 -7 -7 -2 4 10 28 29 148 110 158 105 4 -2 7 -16 7
-30z m-941 -59 c3 -3 -1 -17 -10 -32 l-15 -27 -224 -8 c-124 -4 -253 -5 -287
-2 l-63 7 0 32 c0 18 2 35 4 37 6 6 589 -1 595 -7z m3231 -32 l33 -28 -206
-205 c-133 -132 -208 -200 -212 -191 -11 29 -4 78 16 111 20 33 317 341 328
341 4 0 22 -13 41 -28z m610 18 c0 -5 -2 -10 -4 -10 -3 0 -8 5 -11 10 -3 6 -1
10 4 10 6 0 11 -4 11 -10z m-2891 -112 c0 -45 -2 -49 -10 -28 -6 13 -15 28
-22 32 -8 5 -6 13 7 27 11 12 21 21 23 21 1 0 3 -24 2 -52z m2410 -27 c12 -8
-42 -67 -252 -277 l-267 -267 0 58 0 58 102 106 c57 58 159 163 227 233 136
138 125 133 190 89z m-2612 -7 c-15 -14 -53 -47 -85 -73 -31 -26 -71 -61 -88
-78 l-30 -30 1 37 c0 21 3 36 6 34 3 -2 11 8 18 22 6 15 16 22 23 18 7 -5 8
-3 3 5 -4 8 1 21 14 32 12 11 21 16 21 10 0 -11 39 -3 59 13 12 9 13 8 7 -2
-5 -8 9 -2 30 12 50 32 56 32 21 0z m-1106 -17 c4 -5 21 -7 40 -2 62 13 159
17 159 7 0 -13 -67 -72 -83 -73 -7 -1 -99 -2 -205 -3 l-194 -1 7 39 c3 22 8
42 10 46 7 11 259 -1 266 -13z m4412 6 c-7 -2 -13 -12 -13 -20 0 -13 -3 -13
-15 -3 -23 19 -18 30 13 29 15 0 21 -3 15 -6z m-3173 -44 c0 -24 -257 -279
-281 -279 -5 0 -9 9 -9 20 0 11 -5 20 -11 20 -6 0 -9 -15 -8 -35 4 -37 -30
-95 -55 -95 -8 0 -16 -5 -18 -11 -2 -6 -15 -1 -31 11 l-28 22 22 24 c12 13 26
21 32 17 6 -3 7 -1 4 4 -11 17 301 322 343 335 16 5 40 -14 40 -33z m2575 -29
l22 -21 -144 -142 c-296 -292 -478 -467 -487 -467 -5 0 -6 18 -3 41 4 34 18
54 79 118 40 42 120 128 178 191 104 113 306 300 324 300 6 0 19 -9 31 -20z
m-2495 -80 c5 -58 0 -90 -15 -90 -21 0 -57 42 -52 62 3 12 0 15 -12 11 -9 -2
2 12 23 31 42 38 52 36 56 -14z m2592 -7 c10 -9 18 -21 18 -27 0 -11 -414
-425 -598 -598 -93 -88 -115 -101 -126 -73 -14 39 7 75 92 152 47 43 124 116
170 163 109 109 415 400 421 400 2 0 13 -7 23 -17z m-3922 -32 c0 -14 -28 -33
-40 -26 -15 10 -12 23 8 28 28 8 32 7 32 -2z m-230 -41 l20 -40 -25 -5 c-14
-3 -37 -7 -51 -11 -22 -4 -25 -2 -20 11 3 9 6 32 6 51 0 30 3 34 25 34 19 0
29 -10 45 -40z m1477 -12 c27 -50 38 -60 76 -72 14 -4 17 -17 17 -71 0 -61 -1
-65 -18 -56 -11 6 -30 25 -45 43 -14 18 -48 57 -76 87 -28 29 -51 57 -51 63 0
10 51 57 62 58 4 0 19 -23 35 -52z m3613 6 c6 -14 10 -27 10 -30 0 -2 -51 -4
-114 -4 -106 0 -115 2 -121 20 -3 11 -12 21 -18 21 -34 4 70 17 146 18 85 1
88 0 97 -25z m-840 -29 l24 -25 -55 -56 c-103 -105 -384 -381 -466 -457 -80
-75 -83 -77 -133 -77 -29 0 -50 4 -48 8 2 5 127 128 278 274 151 146 295 287
320 312 24 25 47 46 50 46 4 0 17 -11 30 -25z m-2879 -52 c31 -52 60 -87 135
-164 l65 -67 -3 -62 -3 -62 -25 24 c-14 13 -63 67 -110 118 -80 89 -104 114
-152 155 -20 17 -20 18 18 56 21 21 41 39 45 39 4 0 18 -17 30 -37z m-441 12
c1 6 8 -3 17 -19 15 -29 15 -30 -8 -48 -13 -10 -35 -27 -47 -38 -25 -21 -37
-26 -28 -12 3 5 -5 17 -16 27 l-21 18 44 41 c27 26 47 38 51 31 5 -6 8 -6 8 0z
m3422 -52 c10 -9 18 -21 18 -27 0 -5 -109 -119 -242 -253 l-242 -243 -58 0
c-32 0 -58 2 -58 5 0 3 37 40 82 82 45 43 170 162 277 266 107 103 197 187
200 187 2 0 13 -7 23 -17z m-3025 -148 c49 -55 122 -132 161 -171 71 -70 72
-71 72 -123 l0 -52 -27 19 c-16 11 -107 98 -203 194 l-175 173 35 32 c19 18
38 31 41 30 3 -1 46 -47 96 -102z m-274 74 c11 -18 4 -55 -15 -82 -13 -17 -15
-16 -43 14 -18 20 -23 30 -13 26 19 -7 45 18 28 28 -5 3 -10 13 -10 21 0 20
39 15 53 -7z m-80 -17 c-10 -10 -20 -17 -22 -16 -6 5 20 34 30 34 5 0 1 -8 -8
-18z m3486 -6 l23 -25 -40 -48 c-71 -83 -372 -358 -390 -355 -9 1 -29 3 -44 4
-18 1 -25 5 -20 13 4 6 78 81 166 166 87 85 184 179 215 210 31 31 59 57 62
58 3 0 16 -10 28 -23z m-3599 10 c0 -3 -4 -8 -10 -11 -5 -3 -10 -1 -10 4 0 6
5 11 10 11 6 0 10 -2 10 -4z m219 -68 c-12 -23 -12 -23 9 -4 22 19 22 19 202
-161 99 -99 180 -187 180 -196 0 -14 -10 -17 -49 -17 l-48 0 -164 159 c-141
137 -162 161 -150 174 7 9 10 20 7 26 -8 12 3 41 15 41 6 0 4 -10 -2 -22z
m-143 -24 c-3 -8 0 -11 8 -8 8 3 17 0 21 -6 8 -13 -39 -59 -198 -197 -54 -47
-103 -94 -110 -104 -9 -15 -24 -19 -71 -19 l-59 0 49 42 c27 23 114 106 193
185 116 115 147 141 158 131 8 -6 12 -17 9 -24z m-226 17 c0 -5 -10 -15 -22
-24 -23 -15 -23 -15 9 -15 22 1 30 5 26 14 -3 8 2 15 11 15 25 2 30 4 46 13
23 15 -61 -75 -207 -222 -97 -96 -133 -127 -133 -112 0 11 7 20 15 20 20 0 19
10 -2 25 -31 23 -22 44 45 108 37 35 96 91 132 125 63 60 80 71 80 53z m3852
-28 c10 -9 18 -21 18 -27 0 -6 -69 -79 -153 -162 l-152 -151 -49 5 -49 4 174
174 c96 96 178 174 183 174 5 0 18 -7 28 -17z m-3374 -245 c84 -85 85 -87 59
-93 -59 -15 -96 3 -187 90 -49 46 -98 86 -109 90 -30 9 -26 20 21 69 l41 44
45 -57 c25 -31 83 -95 130 -143z m3492 124 c0 -8 -46 -61 -101 -118 l-102
-103 -41 6 c-23 3 -42 6 -43 7 -1 1 54 60 122 130 123 127 125 129 145 111 11
-10 20 -25 20 -33z m-3742 -71 c12 -11 22 -24 22 -29 0 -17 -51 -72 -66 -72
-8 0 -19 -9 -26 -20 -11 -17 -24 -20 -78 -20 l-65 0 70 63 c38 34 76 70 85 79
20 21 30 21 58 -1z m3827 6 c23 -18 16 -49 -25 -105 -30 -41 -31 -42 -90 -42
-33 0 -60 4 -60 9 0 11 135 151 147 151 5 0 17 -6 28 -13z m-3695 -150 c0 -4
-33 -7 -72 -5 -86 4 -93 15 -51 70 l28 36 48 -46 c26 -25 47 -50 47 -55z
m3797 41 c33 -31 29 -38 -22 -38 -25 0 -45 2 -45 5 0 9 32 55 38 55 3 0 16
-10 29 -22z m-4504 -18 c3 -11 1 -18 -4 -14 -5 3 -9 12 -9 20 0 20 7 17 13 -6z
m1199 -322 c2 -117 2 -331 0 -475 l-3 -263 -90 0 -90 0 2 405 c2 222 0 407 -3
410 -3 3 -305 9 -672 12 -366 3 -666 10 -666 15 0 4 -9 8 -20 8 -15 0 -20 7
-20 26 0 14 -4 23 -10 19 -5 -3 -10 -2 -10 4 0 21 225 30 965 39 319 4 588 9
597 10 15 2 17 -18 20 -210z m2895 202 l543 0 40 -37 c38 -34 41 -40 38 -82
l-3 -46 -67 1 c-58 0 -70 4 -86 24 l-19 24 -589 3 c-324 2 -612 1 -640 -2
l-52 -6 -9 -50 c-7 -32 -7 -49 0 -49 6 0 7 -22 3 -57 -3 -32 -6 -62 -5 -68 0
-5 1 -35 2 -65 l2 -55 -77 -3 c-60 -2 -78 -6 -78 -17 0 -12 16 -15 74 -15 l74
0 6 -52 c3 -29 7 -127 8 -218 l3 -165 -87 -3 -87 -3 -1 213 c-2 370 -10 720
-17 731 -4 7 67 8 237 4 134 -4 488 -7 787 -7z m-2077 -317 l0 -208 -215 3
-215 3 0 68 c0 37 3 129 7 204 l6 137 209 0 208 0 0 -207z m661 185 c2 -13 3
-105 1 -205 l-3 -183 -201 0 -200 0 6 23 c3 12 6 104 6 205 l0 182 194 0 c193
0 194 0 197 -22z m-2648 -278 c3 -96 3 -194 0 -217 l-6 -43 -108 0 -109 0 0
220 0 219 103 3 c56 2 105 1 108 -2 4 -3 9 -84 12 -180z m285 5 c2 -99 0 -199
-3 -222 l-6 -41 -97 -4 c-53 -2 -98 -3 -100 -2 -2 1 -6 104 -9 228 l-6 227
109 -3 109 -3 3 -180z m312 -39 l0 -224 -112 -4 c-62 -2 -115 -3 -117 -2 -2 2
0 104 4 228 l7 226 109 0 109 0 0 -224z m280 -2 l0 -221 -52 -7 c-96 -11 -155
-8 -162 10 -7 18 -8 428 -1 435 2 3 52 5 110 4 l105 0 0 -221z m2680 9 c0
-120 -4 -224 -8 -231 -6 -9 -36 -12 -113 -10 l-104 3 -3 222 -2 222 62 4 c35
2 87 4 116 5 l52 2 0 -217z m264 128 c3 -44 3 -142 0 -219 l-7 -140 -45 -6
c-25 -3 -69 -6 -98 -6 l-54 0 0 225 0 225 99 0 98 0 7 -79z m306 -146 l0 -225
-104 0 c-85 0 -105 3 -110 16 -3 9 -6 110 -6 225 l0 209 110 0 110 0 0 -225z
m280 3 l0 -223 -103 0 -102 1 -3 222 -2 222 105 0 105 0 0 -222z m275 167 l0
-50 -55 3 c-97 5 -100 6 -100 58 l0 45 78 -3 77 -3 0 -50z m-5014 -345 c1
-151 1 -336 1 -412 l-2 -136 -37 -9 -38 -9 4 -54 c2 -30 8 -64 13 -74 6 -11
11 -40 12 -65 l1 -46 688 0 688 0 -6 -25 c-4 -14 -18 -48 -32 -77 -20 -42 -25
-67 -25 -135 0 -50 -5 -86 -12 -90 -6 -4 -332 -8 -723 -8 l-713 0 0 620 0 619
23 23 c39 38 77 94 69 102 -4 4 -1 6 7 4 20 -4 61 59 62 96 1 29 2 28 9 -9 5
-22 9 -164 11 -315z m4973 254 c45 -7 46 -7 46 -43 0 -38 -14 -69 -23 -54 -3
5 -21 10 -39 11 -74 6 -103 17 -106 41 -8 51 14 59 122 45z m-5107 -66 c-4
-35 -27 -52 -27 -19 0 12 5 21 10 21 6 0 10 7 10 15 0 8 2 15 6 15 3 0 3 -14
1 -32z m5149 -153 c1 -44 3 -323 5 -620 l4 -540 -75 -6 c-104 -9 -993 -10
-1179 -2 l-152 6 3 30 c3 29 13 39 52 52 22 7 11 22 -19 27 -26 4 -35 17 -35
52 0 16 -14 51 -31 77 -17 27 -29 54 -27 60 3 8 188 11 653 11 528 0 655 2
682 13 18 8 33 19 33 25 0 6 4 9 9 6 12 -8 41 4 41 16 0 6 -11 8 -25 6 l-25
-5 0 108 0 109 -35 0 c-30 0 -35 3 -35 23 0 12 -3 52 -7 90 l-6 67 34 1 c30 0
31 1 12 9 -31 12 -45 44 -41 92 3 39 6 42 43 53 l40 12 -36 16 c-39 17 -49 33
-49 75 0 62 7 68 73 70 67 3 97 16 45 20 -17 1 -51 11 -75 22 -38 17 -43 22
-43 52 0 51 15 59 95 56 l70 -3 1 -80z m-2025 -14 c3 -3 3 -94 1 -202 l-4
-196 -173 -8 c-96 -4 -183 -4 -194 0 -19 6 -21 14 -21 83 0 42 -3 134 -7 204
l-6 127 64 3 c87 5 333 -3 340 -11z m-681 -202 l0 -210 -210 3 -210 3 0 202
c0 184 2 202 18 206 9 3 104 5 210 6 l192 1 0 -211z m-1970 -133 l0 -204 -93
-7 c-146 -11 -132 -32 -135 202 l-2 202 47 4 c27 2 78 4 116 5 l67 2 0 -204z
m590 76 c0 -71 3 -163 6 -205 l7 -75 -114 -4 c-63 -2 -115 -3 -115 -3 -1 0 -5
91 -8 202 l-7 202 73 4 c40 1 92 4 116 5 l42 2 0 -128z m-310 -81 c0 -110 -3
-202 -8 -205 -4 -2 -53 -2 -110 1 l-102 6 0 198 0 199 110 0 110 0 0 -199z
m587 57 c-4 -79 -7 -169 -7 -200 l0 -58 -105 0 -105 0 0 200 0 200 112 0 111
0 -6 -142z m2685 -55 c2 -109 3 -199 3 -199 0 -1 -53 -4 -117 -6 l-118 -4 0
203 0 203 114 0 114 0 4 -197z m261 -5 c-3 -112 -7 -204 -8 -206 -2 -2 -46 0
-99 4 l-96 7 0 198 0 199 104 0 104 0 -5 -202z m312 0 l-2 -203 -105 -2 -105
-2 -7 76 c-3 42 -6 134 -6 205 l0 128 113 0 113 0 -1 -202z m275 -2 l0 -203
-105 0 -105 0 0 203 0 204 105 0 105 0 0 -204z m-2344 106 c7 -4 11 -52 12
-125 1 -106 -1 -118 -16 -115 -14 3 -17 17 -18 83 -1 44 -5 99 -9 123 -8 43 2
54 31 34z m137 2 c11 -4 12 -14 6 -47 -5 -23 -6 -79 -2 -124 5 -71 3 -83 -10
-83 -23 0 -27 22 -27 146 0 111 3 120 33 108z m-1213 -249 c0 -30 -4 -55 -10
-55 -5 0 -10 25 -10 55 0 30 5 55 10 55 6 0 10 -25 10 -55z m202 -107 c-1 -79
-7 -249 -12 -378 -6 -129 -10 -331 -10 -448 l0 -212 -55 0 -55 0 0 253 c-1
138 -4 270 -9 293 -6 32 -2 58 17 120 23 72 26 99 30 297 l4 217 46 0 47 0 -3
-142z m1955 110 c-3 -18 -14 -89 -23 -157 -20 -142 -12 -225 30 -316 22 -48
23 -57 15 -190 -4 -77 -8 -218 -8 -312 l-1 -173 -55 0 -55 0 -2 358 c-1 196
-2 462 -3 589 l0 233 54 0 53 0 -5 -32z m-1157 -193 c0 -101 3 -190 6 -199 5
-13 -6 -14 -83 -9 -60 4 -91 10 -96 20 -8 12 -10 12 -20 0 -9 -11 -42 -16
-119 -20 l-108 -5 0 117 c0 64 -3 153 -7 198 l-6 82 89 3 c49 2 146 2 217 0
l127 -3 0 -184z m677 181 c1 -1 0 -90 -4 -197 l-6 -194 -202 0 -203 0 4 100
c11 269 13 288 26 297 10 7 376 1 385 -6z m-1679 -188 c3 -22 -2 -28 -20 -33
-13 -3 -302 -4 -643 -3 l-620 3 -3 33 -3 32 643 -2 643 -3 3 -27z m3512 -3 l0
-35 -625 0 -625 0 0 25 c0 13 8 29 18 34 11 7 231 10 625 11 l607 0 0 -35z
m-1562 -412 l-3 -28 -762 -3 c-722 -2 -763 -1 -764 15 -1 17 -2 17 -6 1 -4
-14 -15 -18 -59 -18 -51 0 -54 2 -54 25 0 23 4 24 63 28 34 2 405 4 825 5
l763 2 -3 -27z m-120 -120 c117 -6 122 -7 122 -28 0 -21 -3 -22 -197 -28 -252
-9 -853 -9 -1190 0 l-263 6 0 23 c0 22 4 23 78 27 150 6 1330 7 1450 0z
m-1872 -115 c-3 -29 -6 -108 -6 -175 l0 -123 -725 0 -725 0 0 153 c0 83 3 162
6 175 l6 22 726 0 725 0 -7 -52z m3732 45 c-10 -2 -26 -2 -35 0 -10 3 -2 5 17
5 19 0 27 -2 18 -5z m-1373 -55 c0 -143 7 -262 15 -238 8 24 8 24 9 2 1 -12 8
-25 16 -28 27 -11 16 -24 -20 -24 l-35 0 0 170 c0 94 3 170 8 170 4 0 7 -24 7
-52z m1382 -5 c-3 -10 -5 -2 -5 17 0 19 2 27 5 18 2 -10 2 -26 0 -35z m-1749
-18 c7 -3 12 -15 10 -27 l-3 -23 -735 -3 c-404 -2 -777 0 -827 3 -89 7 -93 8
-93 30 0 22 4 24 63 27 95 5 1570 -2 1585 -7z m1072 -7 c0 -4 10 -8 22 -8 17
0 19 -3 10 -12 -17 -17 -14 -59 4 -83 15 -19 16 -18 11 23 -7 59 14 83 73 84
36 0 48 -4 66 -27 12 -15 27 -24 33 -21 7 5 11 -2 11 -17 0 -53 12 -87 31 -87
22 0 25 -26 7 -65 -8 -17 -17 -24 -27 -20 -11 4 -13 3 -6 -3 6 -6 19 -12 30
-15 33 -8 -326 -6 -383 2 -30 4 -57 12 -60 18 -15 23 -74 43 -127 43 -48 0
-55 -2 -55 -20 0 -16 -7 -20 -31 -20 -17 0 -58 -7 -91 -16 -33 -8 -65 -13 -71
-11 -6 2 17 9 51 17 49 10 62 17 62 31 0 15 8 19 40 19 39 0 45 6 39 46 0 4 5
10 11 14 9 6 9 13 1 28 -18 33 -13 59 12 66 37 10 87 7 87 -5 0 -7 9 0 20 14
11 14 33 28 48 30 46 7 182 4 182 -5z m-1070 -138 c18 -28 10 -37 -37 -43 -97
-12 -849 -19 -1226 -12 l-388 7 3 27 c3 22 9 27 43 32 22 4 390 6 818 5 673
-1 779 -4 787 -16z m430 -65 c0 -8 -7 -15 -15 -15 -8 0 -15 7 -15 15 0 8 7 15
15 15 8 0 15 -7 15 -15z m-1172 -41 c51 -4 92 -10 92 -13 0 -3 -223 -7 -495
-8 -312 -1 -495 2 -495 8 0 6 82 9 211 9 116 -1 214 1 217 4 7 8 358 7 470 0z
m617 -14 c129 -7 128 -7 -65 -7 -107 1 -210 4 -230 8 -48 9 129 9 295 -1z
m1853 3 c-15 -2 -42 -2 -60 0 -18 2 -6 4 27 4 33 0 48 -2 33 -4z"/>
<path d="M5148 8021 c-132 -124 -353 -344 -488 -487 -52 -56 -106 -108 -120
-116 -24 -15 -24 -16 -11 -69 10 -39 15 -187 18 -542 l5 -487 711 -3 712 -2
-3 550 -3 550 -107 105 c-59 58 -218 218 -354 355 l-247 251 -113 -105z m72
-433 l-1 -353 -122 125 c-67 69 -144 152 -172 184 l-49 58 169 168 c94 93 171
169 173 169 1 1 2 -158 2 -351z m253 161 c88 -84 147 -148 147 -160 0 -11 -67
-86 -161 -181 l-160 -163 5 94 c3 52 6 197 6 323 0 125 3 228 8 228 4 0 74
-63 155 -141z m-549 -346 c203 -198 246 -242 246 -251 0 -10 -505 -11 -513 -2
-2 3 -7 49 -10 103 l-6 99 70 74 c38 42 69 79 69 85 0 24 33 0 144 -108z m862
25 l85 -83 -7 -102 -7 -103 -259 0 c-244 0 -258 1 -249 18 11 21 333 349 344
351 4 0 46 -36 93 -81z m-566 -693 l0 -315 -285 0 -285 0 0 308 c0 170 3 312
7 315 3 4 132 7 285 7 l278 0 0 -315z m578 308 l64 -6 -3 -302 -4 -302 -268
-8 c-148 -4 -271 -4 -275 -1 -3 4 -8 146 -10 316 l-4 310 218 0 c121 0 247 -3
282 -7z"/>
<path d="M3295 6430 c-3 -5 -1 -10 4 -10 6 0 11 5 11 10 0 6 -2 10 -4 10 -3 0
-8 -4 -11 -10z"/>
<path d="M3267 6403 c-12 -12 -7 -22 8 -17 8 4 15 10 15 15 0 11 -14 12 -23 2z"/>
<path d="M6278 5483 c17 -2 47 -2 65 0 17 2 3 4 -33 4 -36 0 -50 -2 -32 -4z"/>
<path d="M3230 4099 c-19 -34 2 -69 40 -69 23 0 33 6 39 23 20 50 -54 93 -79
46z"/>
<path d="M3459 4076 c-17 -36 3 -61 35 -44 11 6 22 11 24 10 13 -9 23 3 20 26
-2 22 -8 28 -35 30 -27 3 -35 -1 -44 -22z"/>
<path d="M3661 4064 c0 -11 3 -14 6 -6 3 7 2 16 -1 19 -3 4 -6 -2 -5 -13z"/>
<path d="M7220 4069 c0 -28 5 -49 11 -49 6 0 8 10 5 23 -3 12 -3 16 0 10 13
-29 34 -13 34 26 0 34 -3 39 -25 39 -23 0 -25 -4 -25 -49z"/>
<path d="M6931 3403 c7 -19 9 -80 5 -180 -4 -84 -5 -153 -2 -153 2 0 15 19 29
43 14 24 42 58 63 75 l37 32 139 0 138 0 0 -479 0 -479 -42 -36 c-23 -20 -40
-38 -37 -40 2 -2 88 -7 192 -11 164 -7 187 -6 187 8 0 8 -11 22 -25 31 -54 35
-54 37 -59 541 l-5 468 108 -5 c84 -3 116 -9 142 -24 30 -18 75 -69 105 -120
8 -14 11 30 10 169 -1 161 -3 186 -16 182 -76 -21 -136 -24 -487 -24 -324 -1
-397 2 -427 14 -55 23 -68 20 -55 -12z"/>
<path d="M2580 3401 c0 -6 20 -24 45 -42 25 -18 48 -42 51 -53 3 -12 4 -250 2
-529 l-3 -509 -47 -40 c-27 -22 -48 -43 -48 -47 0 -8 390 -5 398 4 4 4 -2 12
-12 19 -10 6 -31 21 -45 33 l-26 21 -3 226 -3 226 273 0 273 0 -6 -221 -5
-221 -50 -44 c-27 -24 -47 -44 -44 -45 20 -6 392 -4 402 2 10 6 7 13 -12 26
-71 50 -67 27 -75 408 -8 388 0 666 21 707 7 14 29 36 49 48 19 12 33 26 30
31 -6 9 -401 6 -411 -3 -2 -3 13 -17 35 -31 54 -36 61 -66 61 -284 l0 -183
-187 0 c-104 0 -225 -3 -270 -7 l-83 -6 0 189 c0 104 5 206 11 226 6 23 24 49
44 65 19 16 35 31 35 36 0 4 -90 7 -200 7 -118 0 -200 -4 -200 -9z"/>
<path d="M4100 3391 c0 -12 11 -26 28 -35 59 -30 57 -15 62 -465 6 -404 6
-418 29 -474 77 -194 295 -293 535 -242 106 22 203 88 267 182 62 90 62 91 69
528 6 439 6 441 67 480 18 11 31 25 29 30 -3 12 -356 16 -356 4 0 -5 6 -13 13
-18 6 -6 26 -21 42 -35 l30 -24 3 -139 c2 -76 -1 -258 -6 -404 -9 -238 -13
-271 -31 -307 -39 -76 -122 -121 -226 -122 -80 0 -128 15 -171 52 -67 59 -76
91 -86 303 -5 105 -8 286 -6 404 l4 214 43 39 c24 21 42 38 40 39 -2 0 -88 3
-191 6 -185 5 -188 5 -188 -16z"/>
<path d="M5460 3390 c0 -9 14 -24 30 -34 65 -38 63 -30 73 -470 9 -433 6 -580
-13 -617 -7 -13 -31 -41 -54 -61 l-41 -37 180 0 c99 -1 186 3 193 8 10 6 5 13
-20 28 -60 35 -67 66 -78 315 -5 123 -10 277 -9 343 l0 120 35 -40 c19 -22 89
-103 154 -180 65 -77 148 -174 184 -215 36 -41 97 -115 136 -165 152 -195 146
-189 214 -202 33 -7 83 -12 110 -13 l49 0 -42 45 c-47 52 -46 37 -41 350 2
105 3 309 4 455 1 295 2 302 67 345 22 14 39 29 39 33 0 4 -88 7 -195 7 l-194
0 47 -48 47 -48 2 -362 3 -362 -23 26 c-132 155 -177 209 -198 239 -13 19 -63
82 -110 140 -47 58 -123 157 -169 220 -46 63 -96 131 -113 150 l-31 35 -118 5
c-102 4 -118 3 -118 -10z"/>
<path d="M5248 1822 c-45 -31 -87 -94 -88 -130 0 -52 67 -142 107 -142 55 0
129 67 134 120 5 51 -2 71 -36 109 -46 51 -85 65 -117 43z"/>
<path d="M2645 1721 c-36 -5 -40 -9 -40 -36 l0 -30 545 -3 c300 -2 564 0 586
3 55 8 78 25 70 53 l-7 22 -557 -1 c-306 -1 -575 -5 -597 -8z"/>
<path d="M6853 1723 c-18 -4 -23 -11 -23 -38 0 -33 1 -33 53 -38 28 -3 216 -3
417 -1 396 5 399 5 386 58 l-6 26 -403 -1 c-221 -1 -412 -4 -424 -6z"/>
</g>
</svg>
